<?xml version="1.0" encoding="utf-8"?>
<!-- Generator: Adobe Illustrator 24.0.2, SVG Export Plug-In . SVG Version: 6.00 Build 0)  -->
<svg version="1.1" id="Ebene_1" xmlns="http://www.w3.org/2000/svg" xmlns:xlink="http://www.w3.org/1999/xlink" x="0px" y="0px"
	 viewBox="0 0 407.88 127" style="enable-background:new 0 0 407.88 127;" xml:space="preserve">
<style type="text/css">
	.st0{fill:#E40613;}
</style>
<g>
	<polygon points="159.12,31.31 172.94,31.31 172.94,63.35 185.51,63.35 185.51,31.31 199.27,31.31 199.27,20.09 159.12,20.09 	"/>
	<polygon points="98.98,37.86 83.75,20.09 71.18,20.09 71.18,63.35 83.75,63.35 83.75,37.4 98.98,55.37 98.98,63.35 111.55,63.35 
		111.55,20.09 98.98,20.09 	"/>
	<rect x="49.75" y="20.09" width="12.57" height="43.26"/>
	<polygon points="45.47,20.09 30.71,20.09 20.39,36.95 19.97,36.95 19.97,20.09 7.39,20.09 7.39,63.35 19.97,63.35 19.97,46.49 
		20.39,46.49 31.32,63.35 46.26,63.35 31.32,41.49 	"/>
	<polygon points="132.97,46.49 154.26,46.49 155.05,36.95 132.97,36.95 132.97,31.31 155.05,31.31 155.05,20.09 120.4,20.09 
		120.4,63.35 156.69,63.35 156.69,52.13 132.97,52.13 	"/>
	<polygon points="216.13,58.15 216.13,20.09 203.56,20.09 203.56,63.35 212.2,63.35 	"/>
	<polygon points="276.26,20.09 269.59,29.16 265.87,20.09 250.87,20.09 260.04,40.84 242.62,63.35 257.24,63.35 265.08,52.97 
		269.19,63.35 283.97,63.35 274.5,40.84 290.86,20.09 	"/>
</g>
<polygon class="st0" points="254.19,8.3 241.78,25.86 235.37,8.3 214,8.3 228.08,42.3 216.13,58.15 212.2,63.35 200.28,79.16 
	221.28,79.16 235.36,60.04 242.57,79.16 263.58,79.16 257.24,63.35 257.24,63.35 242.62,63.35 252.26,50.9 248.81,42.3 
	256.35,32.49 250.87,20.09 265.87,20.09 265.87,20.09 274.92,8.3 "/>
<g>
	<path d="M22.99,118.77v-11.1h-9.47v11.1H7.41V91.66h6.11v10.52h9.47V91.66h6.07v27.11H22.99z"/>
	<path d="M45.91,116.67l-0.11-0.04c-1.34,1.59-3.43,2.49-5.93,2.49c-4.16,0-6.8-2.35-6.8-7.27c0-4.05,2.82-6.83,7.81-6.83
		c1.63,0,3.04,0.25,4.19,0.61v-1.26c0-2.21-1.16-3.22-4.16-3.22c-2.42,0-4.01,0.36-6.04,1.19l-0.47-4.48
		c2.21-0.94,4.7-1.45,7.52-1.45c6.47,0,8.71,2.78,8.71,8.78v13.56h-4.3L45.91,116.67z M45.07,109.37c-0.54-0.22-1.63-0.47-3.11-0.47
		c-2.49,0-3.65,0.98-3.65,2.89c0,2.13,1.27,2.89,3.11,2.89c1.92,0,3.65-1.16,3.65-2.57V109.37z"/>
	<path d="M67.78,118.77v-13.95c0-2.42-1.23-3.4-3.54-3.4c-1.41,0-2.93,0.62-3.69,1.66v15.69h-5.64v-21.8l4.05-0.25l0.83,1.88
		c1.63-1.41,3.76-2.17,6.04-2.17c4.63,0,7.56,2.93,7.56,8.39v13.95H67.78z"/>
	<path d="M91.57,118.77l-0.54-1.88l-0.11-0.04c-1.3,1.52-3.22,2.35-5.86,2.35c-5.64,0-8.39-3.65-8.39-11.5
		c0-7.19,2.75-11.28,8.31-11.28c2.06,0,3.9,0.69,5.35,1.99l0.07-0.07l-0.07-2.89v-4.81l5.6-0.29v28.41H91.57z M90.34,103.12
		c-0.69-0.98-2.02-1.66-3.69-1.66c-3.07,0-4.19,1.59-4.19,6.51c0,5.13,0.98,6.69,4.16,6.69c2.06,0,3.22-0.94,3.72-1.84V103.12z"/>
	<path d="M106.75,119.2c-2.64,0-5.02-0.51-6.87-1.52l0.58-4.63c1.81,1.05,4.37,1.55,6.25,1.55c2.24,0,3.18-0.9,3.18-2.21
		c0-3.51-10.16-1.48-10.16-9.15c0-3.94,2.67-6.76,8.31-6.76c2.21,0,4.37,0.43,6.22,1.19l-0.47,4.59c-1.81-0.76-4.23-1.12-5.86-1.12
		c-1.84,0-2.86,0.72-2.86,1.84c0,3.33,10.01,1.34,10.01,8.89C115.1,116.28,112.68,119.2,106.75,119.2z"/>
	<path d="M132.49,102.22c-1.12-0.4-2.46-0.69-3.72-0.69c-4.08,0-5.42,1.7-5.42,6.33c0,4.7,1.92,6.54,5.31,6.54
		c1.45,0,2.82-0.29,3.98-0.83l0.4,4.37c-1.3,0.79-3.25,1.26-5.6,1.26c-6.47,0-9.91-3.69-9.91-11.35c0-7.27,3-11.35,10.01-11.35
		c1.84,0,3.9,0.4,5.28,0.94L132.49,102.22z"/>
	<path d="M149.34,118.77v-13.95c0-2.24-1.12-3.4-3.51-3.4c-1.63,0-3.04,0.72-3.72,1.66v15.69h-5.6V90.65l5.6-0.29v4.99l-0.07,2.89
		l0.11,0.07c1.63-1.37,3.62-1.88,5.46-1.88c4.63,0,7.34,3.11,7.34,8.39v13.95H149.34z"/>
	<path d="M177.43,111.04c0,5.31-3,8.13-9.22,8.13s-9.22-2.93-9.22-8.13V96.87h5.6v14.06c0,2.17,1.16,3.29,3.62,3.29
		s3.61-1.05,3.61-3.29V96.87h5.6V111.04z"/>
	<path d="M194.71,118.77v-13.95c0-2.24-1.12-3.4-3.51-3.4c-1.63,0-3.04,0.72-3.72,1.66v15.69h-5.6V90.65l5.6-0.29v4.99l-0.07,2.89
		l0.11,0.07c1.63-1.37,3.62-1.88,5.46-1.88c4.63,0,7.34,3.11,7.34,8.39v13.95H194.71z"/>
	<path d="M203.6,107.53c0-6.98,3.07-11.06,9.65-11.06c5.6,0,9.04,3.25,9.04,10.19c0,0.83-0.04,1.88-0.14,2.64h-12.76
		c0.29,3.65,2.06,5.02,5.82,5.02c2.06,0,3.98-0.36,5.86-1.08l0.61,4.52c-1.84,0.83-4.37,1.41-7.16,1.41
		C206.97,119.17,203.6,115.19,203.6,107.53z M217.16,105.58c-0.07-3.22-1.52-4.45-3.87-4.45c-2.71,0-3.76,1.27-4.01,4.45H217.16z"/>
	<path d="M236.68,118.77v-17.75h-2.75v-4.16h2.75v-0.94c0-3.29,2.28-6,7.52-6c1.23,0,2.6,0.18,3.54,0.47l-0.33,3.61
		c-0.65-0.14-1.37-0.22-2.1-0.22c-2.21,0-3.04,0.87-3.04,2.28v0.8h4.66v4.16h-4.66v17.75H236.68z"/>
	<path d="M268.28,111.04c0,5.31-3,8.13-9.22,8.13s-9.22-2.93-9.22-8.13V96.87h5.6v14.06c0,2.17,1.16,3.29,3.62,3.29
		s3.61-1.05,3.61-3.29V96.87h5.6V111.04z M255.73,94.44c-1.59,0-2.35-0.65-2.35-2.35c0-1.55,0.76-2.39,2.35-2.39
		c1.66,0,2.39,0.83,2.39,2.39C258.12,93.65,257.4,94.44,255.73,94.44z M262.35,94.44c-1.59,0-2.39-0.65-2.39-2.35
		c0-1.55,0.8-2.39,2.39-2.39c1.66,0,2.35,0.83,2.35,2.39C264.7,93.65,264.01,94.44,262.35,94.44z"/>
	<path d="M272.51,118.77V97.01l4.48-0.22l0.51,3.65h0.11c1.37-2.64,3.51-3.94,6-3.94c0.98,0,1.81,0.14,2.39,0.33l-0.36,5.53
		c-0.69-0.22-1.52-0.36-2.39-0.36c-2.93,0-5.1,2.13-5.1,5.78v10.99H272.51z"/>
	<path d="M308.73,109.95h-3.61v8.82h-6.11V91.66h9.72c7.52,0,10.59,2.96,10.59,9.29C319.32,106.66,316.29,109.95,308.73,109.95z
		 M308.73,96.76h-3.61v8.31h3.61c3,0,4.3-0.76,4.3-4.16C313.03,97.66,311.88,96.76,308.73,96.76z"/>
	<path d="M322.69,118.77V97.01l4.48-0.22l0.51,3.65h0.11c1.37-2.64,3.51-3.94,6-3.94c0.98,0,1.81,0.14,2.39,0.33l-0.36,5.53
		c-0.69-0.22-1.52-0.36-2.39-0.36c-2.93,0-5.1,2.13-5.1,5.78v10.99H322.69z"/>
	<path d="M347.71,119.28c-6.94,0-10.05-3.33-10.05-11.39c0-8.02,3.11-11.42,10.05-11.42c6.98,0,10.01,3.4,10.01,11.42
		C357.72,115.95,354.68,119.28,347.71,119.28z M347.71,114.69c3.07,0,4.19-1.45,4.19-6.8c0-5.35-1.12-6.8-4.19-6.8
		c-3.11,0-4.23,1.45-4.23,6.8C343.48,113.28,344.63,114.69,347.71,114.69z"/>
	<path d="M367.77,118.77h-5.6v-17.75h-2.75v-4.16h2.75v-0.94c0-3.29,2.28-6,7.52-6c1.23,0,2.42,0.14,3.18,0.36l-0.14,3.69
		c-0.54-0.11-1.19-0.18-1.84-0.18c-2.28,0-3.11,0.87-3.11,2.28v0.8h13.59v21.91h-5.71v-17.75h-7.88V118.77z M378.54,94.52
		c-2.17,0-3.18-0.65-3.18-2.42c0-1.55,1.01-2.42,3.18-2.42c2.24,0,3.22,0.87,3.22,2.42C381.76,93.72,380.78,94.52,378.54,94.52z"/>
	<path d="M392.79,119.2c-2.64,0-5.03-0.51-6.87-1.52l0.58-4.63c1.81,1.05,4.37,1.55,6.25,1.55c2.24,0,3.18-0.9,3.18-2.21
		c0-3.51-10.16-1.48-10.16-9.15c0-3.94,2.67-6.76,8.31-6.76c2.21,0,4.37,0.43,6.22,1.19l-0.47,4.59c-1.81-0.76-4.23-1.12-5.86-1.12
		c-1.84,0-2.86,0.72-2.86,1.84c0,3.33,10.01,1.34,10.01,8.89C401.14,116.28,398.71,119.2,392.79,119.2z"/>
</g>
</svg>
