<?xml version="1.0" encoding="UTF-8"?>
<svg width="351px" height="77px" viewBox="0 0 351 77" version="1.1" xmlns="http://www.w3.org/2000/svg" xmlns:xlink="http://www.w3.org/1999/xlink">
    <!-- Generator: Sketch 48.2 (47327) - http://www.bohemiancoding.com/sketch -->
    <title>bliz-logo</title>
    <desc>Created with Sketch.</desc>
    <defs></defs>
    <g id="Page-1" stroke="none" stroke-width="1" fill="none" fill-rule="evenodd">
        <g id="bliz-logo" fill="#3F3F3F" fill-rule="nonzero">
            <path d="M158.504,59.061 L165.643,59.061 L165.643,45.411 L158.504,45.411 L158.504,59.061 Z M158.504,29.594 L165.643,29.594 L165.643,16.835 L158.504,16.835 L158.504,29.594 Z M129.922,75.907 L129.922,0 L172.914,0 C179.17,0 184.144,1.013 187.967,2.926 C192.18,4.97 194.221,7.908 194.221,11.726 L194.221,33.672 C194.221,36.222 191.539,37.631 186.311,38.01 C189.499,38.396 191.286,38.646 191.928,38.776 C193.449,39.41 194.221,40.563 194.221,42.349 L194.221,64.166 C194.221,67.989 191.928,70.923 187.203,73.097 C183.244,74.88 178.275,75.907 172.527,75.907 L129.922,75.907 Z" id="Shape"></path>
            <polygon id="Shape" points="200.975 0.12 229.812 0.12 229.812 59.06 244.223 59.06 244.223 75.907 200.975 75.907"></polygon>
            <rect id="Rectangle-path" x="250.611" y="0.12" width="28.574" height="75.787"></rect>
            <polygon id="Shape" points="309.803 16.962 284.791 16.962 284.791 0.12 351 0.12 322.424 59.061 349.092 59.061 349.092 75.907 283.004 75.907"></polygon>
            <path d="M96.209,43.961 C96.232,42.574 95.324,41.447 93.586,40.485 C91.752,39.534 89.713,39.032 87.404,38.993 C89.713,39.032 91.759,38.704 93.527,37.987 C95.302,37.183 96.244,36.279 96.261,35.073 L96.236,14.894 C96.209,10.915 88.756,8.845 73.66,8.869 L62.926,8.869 L62.91,14.977 L70.498,14.927 L70.519,35.931 L62.927,35.994 L62.927,41.173 L70.527,41.12 L70.527,63.06 L62.927,63.019 L62.919,69.129 L73.103,69.115 C88.562,69.101 96.279,67.008 96.257,63.025 L96.209,43.961 Z M53.4,63.042 L46.271,63.007 L46.267,41.173 L53.3,41.191 L53.3,35.921 L46.267,35.984 L46.25,14.974 L53.283,14.909 L53.301,8.89 L20.525,8.89 L20.617,69.155 L53.385,69.063 L53.4,63.042 Z M114.451,76.013 L1.902,76.062 C0.697,76.038 0.052,75.472 0.08,74.269 L0,2.066 C0.023,0.866 0.684,0.138 1.885,0.156 L114.34,0.112 C115.555,0.138 116.19,0.789 116.174,1.997 L116.244,74.202 C116.227,75.395 115.656,76.038 114.451,76.013 Z" id="Shape"></path>
        </g>
    </g>
</svg>