<?xml version="1.0" encoding="UTF-8" standalone="no"?>
<svg
   xmlns:dc="http://purl.org/dc/elements/1.1/"
   xmlns:cc="http://creativecommons.org/ns#"
   xmlns:rdf="http://www.w3.org/1999/02/22-rdf-syntax-ns#"
   xmlns:svg="http://www.w3.org/2000/svg"
   xmlns="http://www.w3.org/2000/svg"
   xmlns:sodipodi="http://sodipodi.sourceforge.net/DTD/sodipodi-0.dtd"
   xmlns:inkscape="http://www.inkscape.org/namespaces/inkscape"
   version="1.1"
   id="svg2"
   xml:space="preserve"
   width="129"
   height="42.080002"
   viewBox="0 0 129 42.080002"
   sodipodi:docname="SCHWALBE_2945C_Swoosh.eps"><metadata
     id="metadata8"><rdf:RDF><cc:Work
         rdf:about=""><dc:format>image/svg+xml</dc:format><dc:type
           rdf:resource="http://purl.org/dc/dcmitype/StillImage" /></cc:Work></rdf:RDF></metadata><defs
     id="defs6" /><sodipodi:namedview
     pagecolor="#ffffff"
     bordercolor="#666666"
     borderopacity="1"
     objecttolerance="10"
     gridtolerance="10"
     guidetolerance="10"
     inkscape:pageopacity="0"
     inkscape:pageshadow="2"
     inkscape:window-width="640"
     inkscape:window-height="480"
     id="namedview4" /><g
     id="g10"
     inkscape:groupmode="layer"
     inkscape:label="ink_ext_XXXXXX"
     transform="matrix(1.3333333,0,0,-1.3333333,0,42.08)"><g
       id="g12"
       transform="scale(0.1)"><path
         d="m 170.691,148.805 c 1.372,-17.407 18.247,-24.442 39.051,-24.442 20.524,0 45.973,7.715 50.363,27.024 2.008,8.777 -1.351,16.261 -10.054,20.472 -7.844,3.629 -17.528,4.918 -26.567,6.446 -3.597,0.703 -10.629,1.5 -9.683,5.726 0.972,4.211 6.957,5.141 11.004,5.141 7.656,0 12.668,-2.098 14.195,-8.063 l 26.559,6.188 c -2.907,13.941 -18.211,19.652 -35.403,19.652 -9.82,0 -20.715,-1.508 -29.828,-6.086 -8.996,-4.554 -15.519,-12.273 -17.297,-20.117 -4.347,-19.062 16.797,-23.152 34.778,-26.094 4.324,-0.687 11.761,-1.632 10.636,-6.547 -1.019,-4.445 -8.918,-4.914 -12.816,-4.914 -8.813,0 -14.867,2.571 -15.844,9.711 l -29.094,-4.097 v 0"
         style="fill:#1f5595;fill-opacity:1;fill-rule:nonzero;stroke:none"
         id="path14" /><path
         d="m 328.98,156.184 c -1.949,-6.672 -7.07,-13.34 -16.457,-13.34 -13.73,0 -11.179,13.683 -9.355,21.761 1.738,7.598 6.113,24.325 19.562,24.325 10.25,0 11.485,-8.539 9.653,-15.317 l 28.586,1.172 c 2.531,20.004 -9.149,32.164 -34.422,32.164 -31.192,0 -49.297,-19.183 -54.574,-42.344 -5.196,-22.828 6.418,-40.242 36.172,-40.242 22.839,0 42.168,11.926 48.246,30.426 l -27.411,1.395 v 0"
         style="fill:#1f5595;fill-opacity:1;fill-rule:nonzero;stroke:none"
         id="path16" /><path
         d="m 465.715,205.797 h -30.328 l -6.758,-29.606 H 405.23 l 6.743,29.606 h -30.336 l -18.285,-80.262 h 30.336 l 7.109,31.235 h 23.406 l -7.117,-31.235 h 30.336 l 18.293,80.262 v 0"
         style="fill:#1f5595;fill-opacity:1;fill-rule:nonzero;stroke:none"
         id="path18" /><path
         d="m 605.879,205.797 h -23.262 l -24.289,-46.348 h -0.293 l -3.992,46.348 h -23.855 l -24.016,-46.348 h -0.274 l -3.164,46.348 h -28.613 l 8.137,-80.262 h 26.597 l 22.954,44.231 h 0.261 l 3.66,-44.231 h 25.571 l 44.578,80.262 v 0"
         style="fill:#1f5595;fill-opacity:1;fill-rule:nonzero;stroke:none"
         id="path20" /><path
         d="m 622.012,158.863 13.426,23.293 2.753,-23.293 h -16.179 z m 19.383,-33.328 h 31.085 l -12.761,80.262 h -32.074 l -49.051,-80.262 h 24.707 l 9.648,15.781 h 26.477 l 1.969,-15.781 v 0"
         style="fill:#1f5595;fill-opacity:1;fill-rule:evenodd;stroke:none"
         id="path22" /><path
         d="m 755.891,145.195 h -38.86 l 13.797,60.602 h -30.64 l -18.293,-80.262 h 69.492 l 4.504,19.66 v 0"
         style="fill:#1f5595;fill-opacity:1;fill-rule:nonzero;stroke:none"
         id="path24" /><path
         d="m 798.965,175.02 3.055,13.57 h 11.875 c 5.753,0 11.664,-0.824 10.277,-6.793 -0.41,-1.875 -1.887,-3.867 -4.074,-5.258 -2.539,-1.637 -5.965,-1.519 -8.875,-1.519 h -12.258 z m -7.227,-31.59 3.301,14.504 h 11.992 c 2.793,0 6.231,0 8.574,-1.047 2.637,-1.168 3.958,-3.629 3.321,-6.324 -0.508,-2.235 -2.422,-4.333 -4.883,-5.614 -2.82,-1.636 -6.113,-1.519 -9.141,-1.519 h -13.164 z m -31.953,-17.895 h 45.352 c 8.965,0 19.676,0.11 28.359,4.555 8.008,4.101 12.774,11.805 14.363,18.715 2.219,9.597 -4.011,16.609 -15.046,18.261 l 0.058,0.223 c 10.559,1.871 18.801,9.024 20.742,17.445 1.477,6.555 -0.925,13.102 -6.687,16.957 -5.383,3.637 -12.949,4.106 -20.473,4.106 h -48.379 l -18.289,-80.262 v 0"
         style="fill:#1f5595;fill-opacity:1;fill-rule:evenodd;stroke:none"
         id="path26" /><path
         d="m 934.375,144.719 h -44.641 l 2.942,12.976 h 44.57 l 4.094,17.895 h -44.582 l 2.668,11.707 h 44.668 l 4.187,18.5 h -74.394 l -18.262,-80.262 h 74.348 l 4.402,19.184 v 0"
         style="fill:#1f5595;fill-opacity:1;fill-rule:nonzero;stroke:none"
         id="path28" /><path
         d="m 966.063,291.652 c 0.957,-0.211 1.449,-0.793 1.417,-1.464 -0.031,-0.469 -0.339,-1.153 -1.445,-1.141 -66.824,6.367 -159.062,11.109 -235.027,11.109 -134.16,0 -274.781,-10.961 -373.836,-29.398 -141.442,-26.32 -226.215,-55.715 -226.215,-112.953 0,-50.871 60.078,-75.598 167.383,-101.6839 106.605,-25.9336 270.539,-41.8828 432.812,-41.8828 74.375,0 107.774,-2.0117 173.368,4.0508 1.203,0.1172 1.918,-0.6602 1.886,-1.2578 -0.058,-0.6641 -1.015,-1.4454 -2.246,-1.5625 C 821.57,5.57422 729.004,0 631.301,0 282.621,0 0,70.6914 0,157.832 c 0,87.164 282.621,157.816 631.301,157.816 122.969,0 237.722,-8.777 334.762,-23.996 v 0"
         style="fill:#1f5595;fill-opacity:1;fill-rule:nonzero;stroke:none"
         id="path30" /></g></g></svg>
